<svg id="Layer_1" data-name="Layer 1" xmlns="http://www.w3.org/2000/svg" viewBox="0 0 409.602 409.602">
  <defs>
    <style>
      .cls-1 {
        fill: #fff;
      }
    </style>
  </defs>
  <title>0ff94fc7-fab4-4650-9a14-4b011173ef27</title>
  <g>
    <path class="cls-1" d="M298.727,0H110.875A111,111,0,0,0,0,110.875V298.727A111,111,0,0,0,110.875,409.6H298.727A111,111,0,0,0,409.6,298.727V110.875A111,111,0,0,0,298.727,0ZM204.8,316.8a112,112,0,1,1,112-112,112.121,112.121,0,0,1-112,112ZM319.477,119.215A33.1,33.1,0,1,1,352.57,86.121a33.129,33.129,0,0,1-33.093,33.094Zm0,0"/>
    <path class="cls-1" d="M204.8,116.817A87.984,87.984,0,1,0,292.785,204.8,88.085,88.085,0,0,0,204.8,116.817Zm0,0"/>
    <path class="cls-1" d="M319.477,77.039a9.082,9.082,0,1,0,9.082,9.082,9.095,9.095,0,0,0-9.082-9.082Zm0,0"/>
  </g>
</svg>
