<svg id="Layer_1" data-name="Layer 1" xmlns="http://www.w3.org/2000/svg" viewBox="0 0 384 384">
  <defs>
    <style>
      .cls-1 {
        fill: #5e92c1;
      }
    </style>
  </defs>
  <title>fbe1b9d4-899d-4d4a-a855-c7e72173dd32</title>
  <g>
    <path class="cls-1" d="M157.5,90.75H135V56.25a56.25,56.25,0,1,0-112.5,0v34.5H0v112.5H157.5ZM45,56.25a33.75,33.75,0,1,1,67.5,0v34.5H45Zm45,102H67.5v-22.5H90Zm0,0"/>
    <path class="cls-1" d="M78.75,270.75a33.265,33.265,0,0,0-9.5,1.527A146.543,146.543,0,0,1,49.367,225.75h-23.1A168.048,168.048,0,0,0,51,285.367,33.692,33.692,0,0,0,97.883,332.25,168.049,168.049,0,0,0,157.5,356.984v-23.1A146.542,146.542,0,0,1,110.973,314a33.265,33.265,0,0,0,1.527-9.5,33.789,33.789,0,0,0-33.75-33.75Zm0,0"/>
    <rect class="cls-1" x="180" y="225.75" width="204" height="45"/>
    <path class="cls-1" d="M180,384H384V293.25H180Zm135.75-68.25h22.5v22.5h-22.5Zm-45,0h22.5v22.5h-22.5Zm-45,0h22.5v22.5h-22.5Zm0,0"/>
    <path class="cls-1" d="M272.273,70.023A33.272,33.272,0,0,0,270.75,79.5a33.789,33.789,0,0,0,33.75,33.75,33.325,33.325,0,0,0,9.285-1.461A144.646,144.646,0,0,1,338.25,192c0,3.785-.52,7.5-.805,11.25h22.5c.247-3.754.809-7.469.809-11.25,0-33.625-10.168-65.5-28.637-93.2A33.683,33.683,0,0,0,285.367,51.75c-39.015-25.828-88.414-33.973-133.449-23.387a78.037,78.037,0,0,1,4.9,21.907c38.879-9.227,81.664-2.356,115.453,19.753Zm0,0"/>
  </g>
</svg>
